<svg width="99" height="45" viewBox="0 0 99 45" fill="none" xmlns="http://www.w3.org/2000/svg">
<path d="M76.165 0.0259084C76.1487 0.0829304 75.9858 0.579836 75.7985 1.12562C73.2488 8.84802 68.1412 14.5584 60.9565 17.719C59.254 18.4684 56.0852 19.4378 55.9222 19.2586C55.8897 19.226 55.5394 17.5561 55.1402 15.544C54.7411 13.5401 54.3908 11.9109 54.3582 11.9191C54.3256 11.9354 53.6006 12.6115 52.7535 13.4342L51.2057 14.9168L50.8147 14.6724C50.1142 14.2244 49.4543 14.0777 48.3628 14.1266C47.7518 14.1511 47.2631 14.2162 47.0105 14.3058L46.6114 14.4525L45.1695 12.9536L43.7277 11.4547L43.5159 12.1471C43.4019 12.53 42.8398 14.3954 42.2777 16.3016C41.7156 18.2078 41.2106 19.8858 41.1699 20.0325C41.064 20.3583 41.0802 20.3583 39.4266 19.8288C32.6329 17.6294 27.4846 13.4668 23.9981 7.34101C23.0287 5.63035 21.7335 2.46156 21.5054 1.20708C21.4728 1.04416 21.4158 0.905676 21.3832 0.905676C21.3506 0.905676 21.1796 1.07674 21.0085 1.28854C20.5279 1.88319 19.3875 3.07251 18.6136 3.78936C14.842 7.30028 10.0603 9.5893 4.76541 10.4283C3.53536 10.6238 1.95504 10.7623 0.830891 10.7705H0L0.896059 10.9578C6.54938 12.139 10.1906 15.039 11.2415 19.1853C11.3474 19.5926 11.4533 20.2117 11.4859 20.562C11.5347 21.0752 11.5673 21.1892 11.6651 21.1566C11.9665 21.0344 13.1558 20.7656 14.0274 20.6108C15.2412 20.399 17.5057 20.3176 18.4588 20.4479C21.8313 20.9285 24.218 22.6555 25.7088 25.7102C26.2545 26.8262 26.6048 27.8526 26.841 28.9931C27.0203 29.9054 27.1669 31.0133 27.1669 31.502V31.8442L27.9163 31.3961C28.7798 30.8748 29.4641 30.5734 30.4742 30.2557C31.1503 30.052 31.3051 30.0357 32.6247 30.0357C33.9362 30.0357 34.1073 30.052 34.7834 30.2557C35.7528 30.5489 37.1294 31.2332 38.0418 31.8767C38.946 32.5121 40.844 34.3857 41.7401 35.5099C42.5302 36.5118 43.7358 38.3121 44.4771 39.5991C45.1044 40.6826 46.4077 43.3219 46.8069 44.3157L47.0838 44.9999L47.1897 44.6008C48.2161 40.7477 50.2363 37.9618 53.6414 35.6972C56.8346 33.563 61.2171 32.0885 65.8522 31.5753C66.5039 31.5102 67.0334 31.4369 67.0415 31.4287C67.0497 31.4206 67.1393 30.9725 67.237 30.4349C68.3612 24.5372 71.2123 20.5783 75.3097 19.2423C77.4847 18.5255 80.1647 18.4929 82.5271 19.1527C83.0484 19.2912 83.0484 19.2912 83.081 19.1201C83.3254 17.8656 83.8304 16.6682 84.531 15.6744C85.8343 13.8252 88.0663 11.8376 90.9907 9.93144C92.6199 8.86431 93.8989 8.13932 96.1635 6.99073C97.3039 6.41237 98.1755 5.95619 98.1022 5.98878C98.0207 6.01321 97.5238 6.09467 97.0025 6.17613C95.5118 6.39608 92.123 6.37164 90.5427 6.12726C87.4228 5.65479 84.8161 4.83204 81.9324 3.43093C79.8796 2.43712 78.0712 1.35371 76.6701 0.278434C76.3524 0.0340544 76.1895 -0.0474055 76.165 0.0259084Z" fill="url(#paint0_linear_10_79)"/>
<path d="M76.165 0.025939C76.1487 0.0829609 75.9858 0.579867 75.7985 1.12565C73.2488 8.84805 68.1412 14.5584 60.9565 17.719C59.254 18.4685 56.0852 19.4378 55.9222 19.2586C55.8897 19.226 55.5394 17.5561 55.1402 15.5441C54.7411 13.5401 54.3908 11.9109 54.3582 11.9191C54.3256 11.9354 53.6006 12.6115 52.7535 13.4342L51.2057 14.9168L50.8147 14.6724C50.1142 14.2244 49.4543 14.0778 48.3628 14.1267C47.7518 14.1511 47.2631 14.2163 47.0105 14.3059L46.6114 14.4525L45.1695 12.9536L43.7277 11.4548L43.5159 12.1472C43.4019 12.53 42.8398 14.3955 42.2777 16.3016C41.7156 18.2078 41.2106 19.8859 41.1699 20.0325C41.064 20.3583 41.0802 20.3583 39.4266 19.8288C32.6329 17.6294 27.4846 13.4668 23.9981 7.34104C23.0287 5.63038 21.7335 2.46159 21.5054 1.20711C21.4728 1.04419 21.4158 0.905706 21.3832 0.905706C21.3506 0.905706 21.1796 1.07677 21.0085 1.28857C20.5279 1.88323 19.3875 3.07254 18.6136 3.78939C14.842 7.30031 10.0603 9.58934 4.76541 10.4284C3.53536 10.6239 1.95504 10.7624 0.830891 10.7705H0L0.896059 10.9579C6.54938 12.139 10.1906 15.039 11.2415 19.1853C11.3474 19.5926 11.4533 20.2117 11.4859 20.562C11.5347 21.0752 11.5673 21.1892 11.6651 21.1566C11.9665 21.0345 13.1558 20.7656 14.0274 20.6109C15.2412 20.3991 17.5057 20.3176 18.4588 20.4479C21.8313 20.9286 24.218 22.6555 25.7088 25.7103C26.2545 26.8263 26.6048 27.8527 26.841 28.9931C27.0203 29.9054 27.1669 31.0133 27.1669 31.5021V31.8442L27.9163 31.3962C28.7798 30.8748 29.4641 30.5734 30.4742 30.2557C31.1503 30.0521 31.3051 30.0358 32.6247 30.0358C33.9362 30.0358 34.1073 30.0521 34.7834 30.2557C35.7528 30.549 37.1294 31.2332 38.0418 31.8768C38.946 32.5122 40.844 34.3857 41.7401 35.5099C42.5302 36.5118 43.7358 38.3121 44.4771 39.5992C45.1044 40.6826 46.4077 43.3219 46.8069 44.3157L47.0838 45L47.1897 44.6008C48.2161 40.7478 50.2363 37.9618 53.6414 35.6972C56.8346 33.563 61.2171 32.0886 65.8522 31.5754C66.5039 31.5102 67.0334 31.4369 67.0415 31.4287C67.0497 31.4206 67.1393 30.9726 67.237 30.4349C68.3612 24.5372 71.2123 20.5783 75.3097 19.2423C77.4847 18.5255 80.1647 18.4929 82.5271 19.1527C83.0484 19.2912 83.0484 19.2912 83.081 19.1201C83.3254 17.8657 83.8304 16.6682 84.531 15.6744C85.8343 13.8253 88.0663 11.8376 90.9907 9.93147C92.6199 8.86434 93.8989 8.13935 96.1635 6.99076C97.3039 6.4124 98.1755 5.95622 98.1022 5.98881C98.0207 6.01324 97.5238 6.0947 97.0025 6.17616C95.5118 6.39611 92.123 6.37167 90.5427 6.12729C87.4228 5.65482 84.8161 4.83208 81.9324 3.43096C79.8796 2.43715 78.0712 1.35374 76.6701 0.278465C76.3524 0.0340849 76.1895 -0.047375 76.165 0.025939Z" fill="url(#paint1_linear_10_79)"/>
<defs>
<linearGradient id="paint0_linear_10_79" x1="49.0532" y1="-3.05176e-05" x2="49.0532" y2="44.9999" gradientUnits="userSpaceOnUse">
<stop/>
<stop offset="1" stop-color="#403838"/>
</linearGradient>
<linearGradient id="paint1_linear_10_79" x1="49.0532" y1="0" x2="49.0532" y2="45" gradientUnits="userSpaceOnUse">
<stop/>
<stop offset="1" stop-color="#403838"/>
</linearGradient>
</defs>
</svg>
